<?xml version="1.0" standalone="no"?>
<!DOCTYPE svg PUBLIC "-//W3C//DTD SVG 1.1//EN" "http://www.w3.org/Graphics/SVG/1.1/DTD/svg11.dtd">
<svg xmlns="http://www.w3.org/2000/svg" xmlns:xlink="http://www.w3.org/1999/xlink"  zoomAndPan="magnify" viewBox="0 0 375 374.999991" preserveAspectRatio="xMidYMid meet" version="1.0">
<defs>
<g/><clipPath id="aa411c45a0"><path d="M 173.996094 136.246094 L 194.867188 136.246094 L 194.867188 157.117188 L 173.996094 157.117188 Z M 173.996094 136.246094 " clip-rule="nonzero"/></clipPath><clipPath id="27bdc83f83"><path d="M 184.433594 136.246094 L 194.867188 146.679688 L 184.433594 157.117188 L 173.996094 146.679688 Z M 184.433594 136.246094 " clip-rule="nonzero"/></clipPath></defs><path stroke-linecap="butt" transform="matrix(0, -0.75, 0.75, 0, 183.304929, 197.422794)" fill="none" stroke-linejoin="miter" d="M 0.00122565 1.499678 L 130.162693 1.499678 " stroke="#ebe8e7" stroke-width="3" stroke-opacity="1" stroke-miterlimit="4"/><g clip-path="url(#aa411c45a0)"><g clip-path="url(#27bdc83f83)"><path fill="#ebe8e7" d="M 173.996094 136.246094 L 194.867188 136.246094 L 194.867188 157.117188 L 173.996094 157.117188 Z M 173.996094 136.246094 " fill-opacity="1" fill-rule="nonzero"/></g></g><g fill="#ece6db" fill-opacity="1"><g transform="translate(98.008138, 189.743227)"><g><path d="M 19.800781 0 L 19.800781 -36.480469 L 37.558594 -36.480469 C 56.039062 -37.078125 69.238281 -46.078125 69.238281 -60.71875 C 69.238281 -72.601562 61.199219 -84.238281 39.121094 -84.238281 L 7.800781 -84.238281 L 7.800781 0 Z M 19.800781 -82.558594 L 32.761719 -82.558594 C 51.359375 -82.558594 57.960938 -71.160156 57.960938 -60.480469 C 57.960938 -49.558594 51.238281 -38.160156 32.039062 -38.160156 L 19.800781 -38.160156 Z M 19.800781 -82.558594 "/></g></g></g><g fill="#ece6db" fill-opacity="1"><g transform="translate(198.888447, 189.743227)"><g><path d="M 53.160156 1.800781 C 61.320312 1.800781 70.078125 0.359375 79.320312 -2.398438 L 78.480469 -11.160156 C 71.640625 -7.441406 64.078125 -0.121094 57.480469 -0.121094 C 34.921875 -0.121094 18 -18.601562 18 -42.71875 C 18 -68.878906 32.761719 -84.839844 55.921875 -84.839844 C 63 -84.839844 70.320312 -78.121094 78.71875 -73.320312 L 79.320312 -81.839844 C 70.199219 -85.078125 61.199219 -86.761719 52.800781 -86.761719 C 26.640625 -86.761719 6 -71.519531 6 -42.71875 C 6 -14.160156 25.558594 1.800781 53.160156 1.800781 Z M 53.160156 1.800781 "/></g></g></g><g fill="#ece6db" fill-opacity="1"><g transform="translate(39.737484, 221.479178)"><g><path d="M 3.667969 0 L 3.667969 -6.757812 L 6.957031 -6.757812 C 10.378906 -6.867188 12.824219 -8.535156 12.824219 -11.246094 C 12.824219 -13.445312 11.335938 -15.601562 7.246094 -15.601562 L 1.445312 -15.601562 L 1.445312 0 Z M 3.667969 -15.289062 L 6.066406 -15.289062 C 9.511719 -15.289062 10.734375 -13.179688 10.734375 -11.199219 C 10.734375 -9.179688 9.488281 -7.066406 5.933594 -7.066406 L 3.667969 -7.066406 Z M 3.667969 -15.289062 "/></g></g></g><g fill="#ece6db" fill-opacity="1"><g transform="translate(54.982933, 221.479178)"><g><path d="M 10.023438 -6.289062 C 9.757812 -6.84375 9.402344 -7.15625 8.757812 -7.402344 C 11.222656 -7.824219 12.421875 -9.890625 12.421875 -11.757812 C 12.421875 -13.734375 11 -15.601562 7.824219 -15.601562 L 1.445312 -15.601562 L 1.445312 0 L 3.667969 0 L 3.667969 -5.777344 C 4.667969 -6.6875 5.757812 -7.199219 6.421875 -7.199219 C 6.976562 -7.199219 7.378906 -6.910156 7.621094 -6.421875 L 10.890625 0 L 13.113281 0 Z M 7.402344 -7.667969 C 6.113281 -7.734375 4.777344 -7.023438 3.667969 -6.089844 L 3.667969 -15.289062 L 6.445312 -15.289062 C 9.132812 -15.289062 10.421875 -13.445312 10.421875 -11.378906 C 10.421875 -9.445312 9.3125 -7.578125 7.402344 -7.667969 Z M 7.402344 -7.667969 "/></g></g></g><g fill="#ece6db" fill-opacity="1"><g transform="translate(70.539513, 221.479178)"><g><path d="M 8.378906 0.378906 C 13.222656 0.378906 15.644531 -3.355469 15.644531 -7.757812 C 15.644531 -12.445312 13.222656 -15.980469 8.378906 -15.980469 C 3.535156 -15.980469 1.109375 -12.445312 1.109375 -7.757812 C 1.109375 -3.355469 3.535156 0.378906 8.378906 0.378906 Z M 8.378906 0.0664062 C 4.710938 0.0664062 3.332031 -3.867188 3.332031 -7.757812 C 3.332031 -11.621094 4.535156 -15.667969 8.378906 -15.667969 C 12.132812 -15.667969 13.421875 -11.621094 13.421875 -7.757812 C 13.421875 -3.867188 12.132812 0.0664062 8.378906 0.0664062 Z M 8.378906 0.0664062 "/></g></g></g><g fill="#ece6db" fill-opacity="1"><g transform="translate(88.785159, 221.479178)"><g><path d="M 3.667969 0 L 3.667969 -6.757812 L 6.957031 -6.757812 C 10.378906 -6.867188 12.824219 -8.535156 12.824219 -11.246094 C 12.824219 -13.445312 11.335938 -15.601562 7.246094 -15.601562 L 1.445312 -15.601562 L 1.445312 0 Z M 3.667969 -15.289062 L 6.066406 -15.289062 C 9.511719 -15.289062 10.734375 -13.179688 10.734375 -11.199219 C 10.734375 -9.179688 9.488281 -7.066406 5.933594 -7.066406 L 3.667969 -7.066406 Z M 3.667969 -15.289062 "/></g></g></g><g fill="#ece6db" fill-opacity="1"><g transform="translate(104.030609, 221.479178)"><g><path d="M 3.667969 -8.621094 L 11.621094 -8.621094 L 11.621094 -8.933594 L 3.667969 -8.933594 L 3.667969 -15.289062 C 7.890625 -15.289062 10.554688 -14.980469 12.800781 -14.046875 L 12.800781 -15.601562 L 1.445312 -15.601562 L 1.445312 0 L 13.132812 0 L 13.132812 -1.554688 C 10.511719 -0.511719 7.824219 -0.3125 3.667969 -0.3125 Z M 3.667969 -8.621094 "/></g></g></g><g fill="#ece6db" fill-opacity="1"><g transform="translate(119.987212, 221.479178)"><g><path d="M 10.023438 -6.289062 C 9.757812 -6.84375 9.402344 -7.15625 8.757812 -7.402344 C 11.222656 -7.824219 12.421875 -9.890625 12.421875 -11.757812 C 12.421875 -13.734375 11 -15.601562 7.824219 -15.601562 L 1.445312 -15.601562 L 1.445312 0 L 3.667969 0 L 3.667969 -5.777344 C 4.667969 -6.6875 5.757812 -7.199219 6.421875 -7.199219 C 6.976562 -7.199219 7.378906 -6.910156 7.621094 -6.421875 L 10.890625 0 L 13.113281 0 Z M 7.402344 -7.667969 C 6.113281 -7.734375 4.777344 -7.023438 3.667969 -6.089844 L 3.667969 -15.289062 L 6.445312 -15.289062 C 9.132812 -15.289062 10.421875 -13.445312 10.421875 -11.378906 C 10.421875 -9.445312 9.3125 -7.578125 7.402344 -7.667969 Z M 7.402344 -7.667969 "/></g></g></g><g fill="#ece6db" fill-opacity="1"><g transform="translate(135.543787, 221.479178)"><g><path d="M 8.113281 0 L 8.113281 -15.289062 C 10.800781 -15.289062 11.824219 -14.933594 13.511719 -14.046875 L 13.511719 -15.601562 L 0.511719 -15.601562 L 0.511719 -14.046875 C 2.199219 -14.933594 3.109375 -15.289062 5.890625 -15.289062 L 5.890625 0 Z M 8.113281 0 "/></g></g></g><g fill="#ece6db" fill-opacity="1"><g transform="translate(150.967026, 221.479178)"><g><path d="M 10.734375 -15.601562 C 10.800781 -14.089844 10.691406 -13.132812 10.089844 -12 L 7.601562 -7.222656 L 3.222656 -15.601562 L 1 -15.601562 L 5.535156 -6.933594 L 5.535156 0 L 7.757812 0 L 7.757812 -6.933594 L 12.289062 -15.601562 Z M 10.734375 -15.601562 "/></g></g></g><g fill="#ece6db" fill-opacity="1"><g transform="translate(165.412417, 221.479178)"><g/></g></g><g fill="#ece6db" fill-opacity="1"><g transform="translate(172.012859, 221.479178)"><g><path d="M 9.84375 0.332031 C 11.355469 0.332031 12.980469 0.0664062 14.691406 -0.445312 L 14.535156 -2.066406 C 13.265625 -1.378906 11.867188 -0.0234375 10.644531 -0.0234375 C 6.46875 -0.0234375 3.332031 -3.445312 3.332031 -7.910156 C 3.332031 -12.757812 6.066406 -15.710938 10.355469 -15.710938 C 11.667969 -15.710938 13.023438 -14.46875 14.578125 -13.578125 L 14.691406 -15.15625 C 13 -15.757812 11.335938 -16.066406 9.777344 -16.066406 C 4.933594 -16.066406 1.109375 -13.246094 1.109375 -7.910156 C 1.109375 -2.621094 4.734375 0.332031 9.84375 0.332031 Z M 9.84375 0.332031 "/></g></g></g><g fill="#ece6db" fill-opacity="1"><g transform="translate(189.013979, 221.479178)"><g><path d="M 8.378906 0.378906 C 13.222656 0.378906 15.644531 -3.355469 15.644531 -7.757812 C 15.644531 -12.445312 13.222656 -15.980469 8.378906 -15.980469 C 3.535156 -15.980469 1.109375 -12.445312 1.109375 -7.757812 C 1.109375 -3.355469 3.535156 0.378906 8.378906 0.378906 Z M 8.378906 0.0664062 C 4.710938 0.0664062 3.332031 -3.867188 3.332031 -7.757812 C 3.332031 -11.621094 4.535156 -15.667969 8.378906 -15.667969 C 12.132812 -15.667969 13.421875 -11.621094 13.421875 -7.757812 C 13.421875 -3.867188 12.132812 0.0664062 8.378906 0.0664062 Z M 8.378906 0.0664062 "/></g></g></g><g fill="#ece6db" fill-opacity="1"><g transform="translate(207.259621, 221.479178)"><g><path d="M 2.535156 0 C 2.066406 -1.777344 2 -3.46875 2 -5.265625 L 2 -14.335938 L 11.800781 0 L 13.777344 0 L 13.777344 -10.667969 C 13.777344 -12.222656 13.910156 -14.046875 14.3125 -15.601562 L 12.957031 -15.601562 C 13.355469 -14.046875 13.488281 -12.246094 13.488281 -10.667969 L 13.488281 -0.933594 L 3.421875 -15.601562 L 1.6875 -15.601562 L 1.6875 -5.265625 C 1.6875 -3.3125 1.621094 -1.777344 1.179688 0 Z M 2.535156 0 "/></g></g></g><g fill="#ece6db" fill-opacity="1"><g transform="translate(224.082947, 221.479178)"><g><path d="M 2.535156 0 C 2.066406 -1.777344 2 -3.46875 2 -5.265625 L 2 -14.335938 L 11.800781 0 L 13.777344 0 L 13.777344 -10.667969 C 13.777344 -12.222656 13.910156 -14.046875 14.3125 -15.601562 L 12.957031 -15.601562 C 13.355469 -14.046875 13.488281 -12.246094 13.488281 -10.667969 L 13.488281 -0.933594 L 3.421875 -15.601562 L 1.6875 -15.601562 L 1.6875 -5.265625 C 1.6875 -3.3125 1.621094 -1.777344 1.179688 0 Z M 2.535156 0 "/></g></g></g><g fill="#ece6db" fill-opacity="1"><g transform="translate(240.906273, 221.479178)"><g><path d="M 3.667969 -8.621094 L 11.621094 -8.621094 L 11.621094 -8.933594 L 3.667969 -8.933594 L 3.667969 -15.289062 C 7.890625 -15.289062 10.554688 -14.980469 12.800781 -14.046875 L 12.800781 -15.601562 L 1.445312 -15.601562 L 1.445312 0 L 13.132812 0 L 13.132812 -1.554688 C 10.511719 -0.511719 7.824219 -0.3125 3.667969 -0.3125 Z M 3.667969 -8.621094 "/></g></g></g><g fill="#ece6db" fill-opacity="1"><g transform="translate(256.862877, 221.479178)"><g><path d="M 9.84375 0.332031 C 11.355469 0.332031 12.980469 0.0664062 14.691406 -0.445312 L 14.535156 -2.066406 C 13.265625 -1.378906 11.867188 -0.0234375 10.644531 -0.0234375 C 6.46875 -0.0234375 3.332031 -3.445312 3.332031 -7.910156 C 3.332031 -12.757812 6.066406 -15.710938 10.355469 -15.710938 C 11.667969 -15.710938 13.023438 -14.46875 14.578125 -13.578125 L 14.691406 -15.15625 C 13 -15.757812 11.335938 -16.066406 9.777344 -16.066406 C 4.933594 -16.066406 1.109375 -13.246094 1.109375 -7.910156 C 1.109375 -2.621094 4.734375 0.332031 9.84375 0.332031 Z M 9.84375 0.332031 "/></g></g></g><g fill="#ece6db" fill-opacity="1"><g transform="translate(273.863997, 221.479178)"><g><path d="M 8.113281 0 L 8.113281 -15.289062 C 10.800781 -15.289062 11.824219 -14.933594 13.511719 -14.046875 L 13.511719 -15.601562 L 0.511719 -15.601562 L 0.511719 -14.046875 C 2.199219 -14.933594 3.109375 -15.289062 5.890625 -15.289062 L 5.890625 0 Z M 8.113281 0 "/></g></g></g><g fill="#ece6db" fill-opacity="1"><g transform="translate(289.287235, 221.479178)"><g><path d="M 3.667969 0 L 3.667969 -15.601562 L 1.445312 -15.601562 L 1.445312 0 Z M 3.667969 0 "/></g></g></g><g fill="#ece6db" fill-opacity="1"><g transform="translate(295.887678, 221.479178)"><g><path d="M 8.378906 0.378906 C 13.222656 0.378906 15.644531 -3.355469 15.644531 -7.757812 C 15.644531 -12.445312 13.222656 -15.980469 8.378906 -15.980469 C 3.535156 -15.980469 1.109375 -12.445312 1.109375 -7.757812 C 1.109375 -3.355469 3.535156 0.378906 8.378906 0.378906 Z M 8.378906 0.0664062 C 4.710938 0.0664062 3.332031 -3.867188 3.332031 -7.757812 C 3.332031 -11.621094 4.535156 -15.667969 8.378906 -15.667969 C 12.132812 -15.667969 13.421875 -11.621094 13.421875 -7.757812 C 13.421875 -3.867188 12.132812 0.0664062 8.378906 0.0664062 Z M 8.378906 0.0664062 "/></g></g></g><g fill="#ece6db" fill-opacity="1"><g transform="translate(314.13332, 221.479178)"><g><path d="M 2.535156 0 C 2.066406 -1.777344 2 -3.46875 2 -5.265625 L 2 -14.335938 L 11.800781 0 L 13.777344 0 L 13.777344 -10.667969 C 13.777344 -12.222656 13.910156 -14.046875 14.3125 -15.601562 L 12.957031 -15.601562 C 13.355469 -14.046875 13.488281 -12.246094 13.488281 -10.667969 L 13.488281 -0.933594 L 3.421875 -15.601562 L 1.6875 -15.601562 L 1.6875 -5.265625 C 1.6875 -3.3125 1.621094 -1.777344 1.179688 0 Z M 2.535156 0 "/></g></g></g><g fill="#ece6db" fill-opacity="1"><g transform="translate(330.956646, 221.479178)"><g><path d="M 7.089844 0.289062 C 10.957031 0.289062 13.890625 -1.332031 13.667969 -4.332031 C 13.355469 -8.890625 2.777344 -10 2.554688 -13.113281 C 2.445312 -14.710938 4.179688 -15.601562 6.757812 -15.601562 C 8.3125 -15.601562 10.511719 -14.800781 12.601562 -13.535156 L 12.800781 -15.089844 C 10.824219 -15.691406 8.910156 -15.957031 7.222656 -15.957031 C 3.710938 -15.957031 0.667969 -14.691406 0.84375 -12.066406 C 1.109375 -8.332031 10.734375 -7.710938 11.621094 -3.84375 C 12.113281 -1.601562 10.246094 -0.0898438 7.488281 -0.0898438 C 5.800781 -0.0898438 3.6875 -0.84375 1.179688 -2.398438 L 1 -0.84375 C 3.15625 -0.0898438 5.246094 0.289062 7.089844 0.289062 Z M 7.089844 0.289062 "/></g></g></g></svg>